HIERARCHY
ROOT Hips
{
    OFFSET 0 0 0
    CHANNELS 6 Xposition Yposition Zposition Zrotation Yrotation Xrotation
    JOINT Chest
    {
        OFFSET 1.261052E-14 2.2 9.616505E-08
        CHANNELS 3 Zrotation Yrotation Xrotation
        JOINT Chest2
        {
            OFFSET 0 2.866667 0
            CHANNELS 3 Zrotation Yrotation Xrotation
            JOINT Neck
            {
                OFFSET 0 1.433333 0
                CHANNELS 3 Zrotation Yrotation Xrotation
                JOINT Head
                {
                    OFFSET -5.955877E-09 1.099063 -0.0454182
                    CHANNELS 3 Zrotation Yrotation Xrotation
                    End Site
                    {
                        OFFSET 1.742161E-07 0.215971 1.988305
                    }
                }
            }
            JOINT LeftCollar
            {
                OFFSET 0.6 0.333333 -7.86805E-08
                CHANNELS 3 Zrotation Yrotation Xrotation
                JOINT LeftShoulder
                {
                    OFFSET 1.399785 0.02316189 0.008118234
                    CHANNELS 3 Zrotation Yrotation Xrotation
                    JOINT LeftElbow
                    {
                        OFFSET 2.28797 0.1912422 -0.1364633
                        CHANNELS 3 Zrotation Yrotation Xrotation
                        JOINT LeftWrist
                        {
                            OFFSET 2.775776 0.232193 0.2848766
                            CHANNELS 3 Zrotation Yrotation Xrotation
                            End Site
                            {
                                OFFSET 0.9913487 0.0829258 0.1017416
                            }
                        }
                    }
                }
            }
            JOINT RightCollar
            {
                OFFSET -0.6 0.333333 7.86805E-08
                CHANNELS 3 Zrotation Yrotation Xrotation
                JOINT RightShoulder
                {
                    OFFSET -1.399785 0.02316189 0.008118574
                    CHANNELS 3 Zrotation Yrotation Xrotation
                    JOINT RightElbow
                    {
                        OFFSET -2.28797 0.1912422 -0.136463
                        CHANNELS 3 Zrotation Yrotation Xrotation
                        JOINT RightWrist
                        {
                            OFFSET -2.775776 0.232193 0.2848771
                            CHANNELS 3 Zrotation Yrotation Xrotation
                            End Site
                            {
                                OFFSET -0.9913487 0.0829258 0.1017418
                            }
                        }
                    }
                }
            }
        }
    }
    JOINT LeftHip
    {
        OFFSET 0.9032136 0.1000166 0.0003561888
        CHANNELS 3 Zrotation Yrotation Xrotation
        JOINT LeftKnee
        {
            OFFSET 0.09757304 -3.66482 0.4995777
            CHANNELS 3 Zrotation Yrotation Xrotation
            JOINT LeftAnkle
            {
                OFFSET 0.1137198 -4.272043 -0.4761516
                CHANNELS 3 Zrotation Yrotation Xrotation
                End Site
                {
                    OFFSET -1 0 8.754432E-08
                }
            }
        }
    }
    JOINT RightHip
    {
        OFFSET -0.9032136 0.1000166 0.0003564245
        CHANNELS 3 Zrotation Yrotation Xrotation
        JOINT RightKnee
        {
            OFFSET -0.09757292 -3.66482 0.4995777
            CHANNELS 3 Zrotation Yrotation Xrotation
            JOINT RightAnkle
            {
                OFFSET -0.1137199 -4.272043 -0.4761516
                CHANNELS 3 Zrotation Yrotation Xrotation
                End Site
                {
                    OFFSET -1 0 8.754432E-08
                }
            }
        }
    }
}
MOTION
Frames:    11
Frame Time:    0.016667
0.5621464    8.458677    -0.3576934    178.7767    2.603284    174.0623    -0.6641128    10.71068    0.7616662    -0.2972767    -1.603601    -3.832756    -0.001865221    0.9615894    2.539133    0.1227961    -2.968876    11.6483    -9.950058    2.6966    -0.2919239    -57.00808    29.39502    7.959706    -1.615953    -41.7835    4.276926    -5.759162E-07    -2.40592E-07    -6.414477E-08    9.295663    3.60162    0.2891803    61.82696    -21.29997    3.976213    4.686044    59.69581    8.202196    4.184633E-07    1.5064E-07    -8.423924E-07    10.26178    4.758006    6.677588    0.1287295    0.6143712    23.74957    -10.87428    -5.453619    -14.45414    -6.399483    6.946912    1.220105    -0.1370722    -0.6330141    24.51683    3.956168    7.426617    -16.89435
0.5653053    8.445369    -0.3607372    178.7702    2.60457    173.9188    -0.645806    10.72419    0.8798143    -0.2991683    -1.605497    -3.852884    -0.002182657    0.9646185    2.568953    0.1226171    -2.964558    11.79528    -10.03048    2.725677    -0.2948538    -57.73159    29.57247    8.180649    -1.620054    -41.82461    4.283109    -8.298629E-07    3.475631E-07    2.508238E-07    9.134384    3.841355    0.2890187    62.25516    -21.10243    3.739119    5.489262    62.2607    9.121675    -3.85612E-07    -2.055006E-06    -4.885342E-07    10.31195    4.794644    6.611111    0.1342717    0.6268404    24.26219    -10.92626    -5.444682    -14.64685    -6.415132    6.783496    1.098653    -0.1431696    -0.6462412    25.06399    3.870866    7.609234    -17.04874
0.568328    8.431389    -0.3622884    178.7639    2.60558    173.773    -0.6270903    10.73633    0.9975249    -0.30108    -1.607185    -3.87508    -0.002566873    0.9676452    2.605066    0.1223996    -2.959305    11.97249    -10.1037    2.74938    -0.2974719    -58.36784    29.67369    8.413939    -1.615778    -41.78181    4.276673    -3.23046E-07    2.44355E-07    2.142115E-08    8.937614    4.091538    0.2880192    62.53025    -20.79647    3.468971    6.494858    64.88982    10.24547    -6.222938E-07    7.703586E-07    2.333078E-07    10.36322    4.8304    6.521946    0.1402617    0.6399866    24.80492    -10.99658    -5.396505    -14.84449    -6.439533    6.597319    0.9527394    -0.1497118    -0.6600723    25.63882    3.779398    7.819221    -17.20152
0.5712118    8.416719    -0.3623859    178.7576    2.606303    173.6248    -0.6079399    10.74706    1.115023    -0.3029841    -1.608669    -3.89917    -0.003013615    0.9706963    2.647662    0.1221405    -2.953048    12.18088    -10.1698    2.767847    -0.2997692    -58.9195    29.71235    8.659904    -1.605417    -41.67769    4.261049    2.336446E-08    -4.831651E-07    -1.492714E-07    8.708508    4.350434    0.2862456    62.64497    -20.33709    3.157968    7.73998    67.49905    11.60715    1.880442E-07    7.237288E-07    2.04948E-07    10.4221    4.883008    6.410861    0.1467082    0.6537799    25.37692    -11.08112    -5.330236    -15.0425    -6.472214    6.390687    0.7831064    -0.1567104    -0.6744846    26.24071    3.681826    8.053994    -17.35317
0.5739537    8.401347    -0.3610683    178.7516    2.606744    173.4744    -0.5883255    10.75638    1.232538    -0.3048584    -1.609943    -3.925022    -0.00352852    0.973801    2.696929    0.1218365    -2.945709    12.42159    -10.2291    2.781253    -0.3017649    -59.38963    29.70036    8.918617    -1.590967    -41.5315    4.239195    -3.652086E-07    -9.118216E-07    -4.159644E-08    8.450201    4.616247    0.2837492    62.59145    -19.68549    2.793786    9.26313    70.00933    13.24204    5.972257E-07    6.987353E-07    7.509946E-07    10.49457    4.968163    6.278717    0.1536229    0.6681875    25.97729    -11.1757    -5.26489    -15.23664    -6.512685    6.165825    0.590552    -0.1641755    -0.6894473    26.86892    3.578221    8.311044    -17.50404
0.5765512    8.385255    -0.3583745    178.7457    2.606885    173.3216    -0.568216    10.76426    1.350303    -0.3066839    -1.611009    -3.952448    -0.004112389    0.9769885    2.753031    0.1214836    -2.937204    12.69561    -10.28037    2.796795    -0.3035447    -59.78022    29.68637    9.174964    -1.574307    -41.36158    4.213921    -4.355987E-07    9.141435E-07    2.462932E-07    8.165898    4.887117    0.2805829    62.36172    -18.81011    2.359908    11.09431    72.34669    15.17726    -3.857157E-07    -3.74273E-07    1.859872E-07    10.57988    5.082663    6.126253    0.1610165    0.6831794    26.60528    -11.27971    -5.200291    -15.42699    -6.560402    5.924994    0.3759164    -0.1721183    -0.7049303    27.52266    3.468704    8.587799    -17.65449
0.5788998    8.368427    -0.3543293    178.7399    2.584484    173.1669    -0.5502598    10.74859    1.468266    -0.3086738    -1.608496    -3.981327    -0.00476195    0.9769068    2.816171    0.1210798    -2.927452    13.00404    -10.3227    2.818043    -0.3045866    -60.09348    29.71611    9.413821    -1.557104    -41.18462    4.187738    2.794119E-07    3.652227E-07    -3.887673E-08    7.858971    5.157776    0.2763534    61.94849    -17.68798    1.836087    13.23456    74.44254    17.41116    2.402512E-07    1.760502E-07    -1.28831E-06    10.68147    5.223243    5.946426    0.1689347    0.6987888    27.26282    -11.3872    -5.157625    -15.60811    -6.611636    5.670175    0.1458222    -0.1805277    -0.7208661    28.19959    3.358437    8.860044    -17.80779
0.5809025    8.350871    -0.3491395    178.7343    2.519004    173.0061    -0.5362458    10.68903    1.591206    -0.3110284    -1.599311    -4.011462    -0.00547806    0.9704905    2.886514    0.1206206    -2.916369    13.34793    -10.35621    2.841511    -0.304336    -60.33382    29.79466    9.635386    -1.540594    -41.01323    4.162514    2.093849E-08    -1.057401E-06    -1.764883E-07    7.532749    5.423167    0.2707574    61.34583    -16.30562    1.199787    15.62005    76.23472    19.87738    -3.917938E-07    -5.626107E-07    -2.731469E-07    10.80307    5.386351    5.739281    0.1773994    0.7150039    27.95002    -11.49207    -5.156898    -15.77495    -6.662641    5.403369    -0.08715753    -0.1893793    -0.7371623    28.89632    3.252498    9.105858    -17.96726
0.5825621    8.332594    -0.3430167    178.7289    2.413069    172.8344    -0.5253557    10.58825    1.72393    -0.3137081    -1.583863    -4.042715    -0.006260957    0.9581737    2.964261    0.1201019    -2.903861    13.72842    -10.38131    2.86721    -0.3028502    -60.50541    29.92542    9.840177    -1.525674    -40.85709    4.139654    -4.026711E-07    -7.933587E-07    4.538622E-08    7.192061    5.684012    0.2641185    60.59452    -14.65868    0.4704434    18.15261    77.71027    22.47722    -3.191126E-07    -1.194729E-07    -2.219549E-07    10.94378    5.568587    5.512984    0.1863948    0.731731    28.66354    -11.59338    -5.19563    -15.92785    -6.713188    5.126813    -0.3168874    -0.1986665    -0.7537683    29.61112    3.151057    9.325996    -18.13306
0.583872    8.313581    -0.3359864    178.7237    2.26929    172.6523    -0.5177249    10.44887    1.866296    -0.3166722    -1.56255    -4.07493    -0.007107919    0.9403853    3.049589    0.1195221    -2.889851    14.14661    -10.39831    2.895107    -0.3002113    -60.61251    30.11054    10.02895    -1.513031    -40.72378    4.120217    5.609955E-07    4.194081E-07    1.408385E-07    6.841703    5.941402    0.2567347    59.75669    -12.74525    -0.3397631    20.66415    78.86964    25.04252    1.688252E-07    -6.427022E-07    1.838946E-06    11.10191    5.766877    5.26858    0.1959267    0.7489326    29.40237    -11.69024    -5.270757    -16.06734    -6.763478    4.842825    -0.5438091    -0.2083966    -0.7706627    30.34357    3.054607    9.520617    -18.30492
0.5848249    8.293447    -0.3280738    178.7188    2.090279    172.4601    -0.5134357    10.27353    2.018671    -0.3198526    -1.535779    -4.107574    -0.008011073    0.9175608    3.142143    0.1188759    -2.874261    14.60104    -10.4067    2.924938    -0.2964702    -60.65709    30.35984    10.20322    -1.504754    -40.63609    4.107476    6.647618E-08    2.94816E-07    1.753415E-07    6.484075    6.194504    0.2488175    58.83053    -10.57383    -1.229882    22.83685    79.69365    27.25412    1.976827E-07    -6.440865E-08    -2.505128E-07    11.27629    5.977949    5.001041    0.2061683    0.7668505    30.17773    -11.78179    -5.380905    -16.19994    -6.814071    4.553954    -0.7749991    -0.2187548    -0.7881169    31.10611    2.962957    9.69053    -18.48893
